<svg preserveAspectRatio="none" overflow="visible" style="display: block;" width="14" height="14" viewBox="0 0 14 14" fill="none" xmlns="http://www.w3.org/2000/svg">
<g id="Frame">
<path id="Vector" d="M11.2471 8.18453L7.30956 12.122C7.26893 12.1627 7.22068 12.195 7.16757 12.217C7.11445 12.239 7.05752 12.2503 7.00003 12.2503C6.94254 12.2503 6.8856 12.239 6.83249 12.217C6.77938 12.195 6.73113 12.1627 6.6905 12.122L2.753 8.18453C2.67091 8.10244 2.62479 7.9911 2.62479 7.875C2.62479 7.7589 2.67091 7.64756 2.753 7.56547C2.83509 7.48338 2.94643 7.43726 3.06253 7.43726C3.17863 7.43726 3.28997 7.48338 3.37206 7.56547L6.56253 10.7565V2.1875C6.56253 2.07147 6.60862 1.96019 6.69067 1.87814C6.77272 1.79609 6.884 1.75 7.00003 1.75C7.11606 1.75 7.22734 1.79609 7.30939 1.87814C7.39144 1.96019 7.43753 2.07147 7.43753 2.1875V10.7565L10.628 7.56547C10.7101 7.48338 10.8214 7.43726 10.9375 7.43726C11.0536 7.43726 11.165 7.48338 11.2471 7.56547C11.3292 7.64756 11.3753 7.7589 11.3753 7.875C11.3753 7.9911 11.3292 8.10244 11.2471 8.18453Z" fill="black"/>
</g>
</svg>
